<mxfile host="app.diagrams.net" modified="2023-10-16T21:26:46.647Z" agent="Mozilla/5.0 (Macintosh; Intel Mac OS X 10_15_7) AppleWebKit/537.36 (KHTML, like Gecko) Chrome/117.0.0.0 Safari/537.36" version="21.6.8" etag="kwilt_HhCarGHuiLKUCn" type="github">
  <diagram name="第 1 页" id="_fR2wpdx8YliH1NHaj39">
    <mxGraphModel>
      <root>
        <mxCell id="0" />
        <mxCell id="1" parent="0" />
      </root>
    </mxGraphModel>
  </diagram>
</mxfile>
